<mxfile host="app.diagrams.net">
  <diagram name="Animal UML" id="O9WYu6bIv0YCEpVXRMc4">
    <mxGraphModel dx="1240" dy="682" grid="1" gridSize="10" guides="1" tooltips="1" connect="1" arrows="1" fold="1" page="1" pageScale="1" pageWidth="827" pageHeight="1169">
      <root>
        <mxCell id="0" />
        <mxCell id="1" parent="0" />

        <!-- Animal -->
        <mxCell id="2" value="&lt;b&gt;&lt;i&gt;Animal&lt;/i&gt;&lt;/b&gt;" style="swimlane;childLayout=stackLayout;horizontal=0;startSize=40;" vertex="1" parent="1">
          <mxGeometry x="280" y="60" width="160" height="100" as="geometry" />
        </mxCell>
        <mxCell id="21" value="-name: String" style="text;html=1;strokeColor=none;fillColor=none;" vertex="1" parent="2">
          <mxGeometry y="40" width="160" height="30" as="geometry" />
        </mxCell>
        <mxCell id="22" value="+say()" style="text;html=1;strokeColor=none;fillColor=none;" vertex="1" parent="2">
          <mxGeometry y="70" width="160" height="30" as="geometry" />
        </mxCell>

        <!-- Cat -->
        <mxCell id="3" value="Cat" style="swimlane;childLayout=stackLayout;horizontal=0;startSize=40;" vertex="1" parent="1">
          <mxGeometry x="80" y="200" width="160" height="100" as="geometry" />
        </mxCell>
        <mxCell id="31" value="+say()" style="text;html=1;strokeColor=none;fillColor=none;" vertex="1" parent="3">
          <mxGeometry y="40" width="160" height="30" as="geometry" />
        </mxCell>
        <mxCell id="32" value="-meow()" style="text;html=1;strokeColor=none;fillColor=none;" vertex="1" parent="3">
          <mxGeometry y="70" width="160" height="30" as="geometry" />
        </mxCell>

        <!-- Canine -->
        <mxCell id="4" value="&lt;i&gt;Canine&lt;/i&gt;" style="swimlane;childLayout=stackLayout;horizontal=0;startSize=40;" vertex="1" parent="1">
          <mxGeometry x="480" y="200" width="160" height="100" as="geometry" />
        </mxCell>
        <mxCell id="41" value="#likeBones: bool" style="text;html=1;strokeColor=none;fillColor=none;" vertex="1" parent="4">
          <mxGeometry y="40" width="160" height="30" as="geometry" />
        </mxCell>

        <!-- Dog -->
        <mxCell id="5" value="Dog" style="swimlane;childLayout=stackLayout;horizontal=0;startSize=40;" vertex="1" parent="1">
          <mxGeometry x="480" y="360" width="160" height="100" as="geometry" />
        </mxCell>
        <mxCell id="51" value="+say()" style="text;html=1;strokeColor=none;fillColor=none;" vertex="1" parent="5">
          <mxGeometry y="40" width="160" height="30" as="geometry" />
        </mxCell>
        <mxCell id="52" value="-bark()" style="text;html=1;strokeColor=none;fillColor=none;" vertex="1" parent="5">
          <mxGeometry y="70" width="160" height="30" as="geometry" />
        </mxCell>

        <!-- Relationships -->
        <mxCell id="6" style="endArrow=block;endFill=1;" edge="1" parent="1" source="2" target="3">
          <mxGeometry relative="1" as="geometry" />
        </mxCell>
        <mxCell id="7" style="endArrow=block;endFill=1;" edge="1" parent="1" source="2" target="4">
          <mxGeometry relative="1" as="geometry" />
        </mxCell>
        <mxCell id="8" style="endArrow=block;endFill=1;" edge="1" parent="1" source="4" target="5">
          <mxGeometry relative="1" as="geometry" />
        </mxCell>

      </root>
    </mxGraphModel>
  </diagram>
</mxfile>
